<svg width="4062" height="1428" viewBox="0 0 4062 1428" fill="none" xmlns="http://www.w3.org/2000/svg">
<g filter="url(#filter0_d_12_70)">
<rect y="-4331.22" width="4061.34" height="8861.61" fill="url(#paint0_linear_12_70)"/>
</g>
<rect x="662.787" y="-3485.11" width="50.7667" height="5832.53" rx="25.3833" fill="#11B10E"/>
<path d="M723.425 -2836.42H2989.59C3057.28 -2836.42 3191.25 -2832.19 3191.25 -2634.77C3191.25 -2437.34 3191.25 -1929.2 3191.25 -1699.81C3198.77 -1632.13 3168.97 -1496.75 2989.59 -1496.75C2810.22 -1496.75 1763.2 -1496.75 1262.12 -1496.75C1188.79 -1496.75 1044.95 -1469.95 1044.95 -1272.53C1044.95 -1075.1 1044.95 -347.916 1044.95 -9.00176C1044.95 68.5585 1064.69 199.706 1262.12 199.706C1459.54 199.706 2496.03 199.706 2989.59 199.706C3064.33 199.706 3191.25 207.039 3191.25 416.874C3191.25 626.71 3191.25 1172.73 3191.25 1419.52C3191.25 1499.9 3168.97 1638.1 2989.59 1643.74C2810.22 1649.38 1763.2 1646.09 1262.12 1643.74C1189.73 1643.27 1262.12 1643.74 980.079 1643.74C793.935 1643.74 961.747 1643.74 713.554 1643.74" stroke="#37D1E4" stroke-width="5.64074" stroke-dasharray="28.2 28.2"/>
<defs>
<filter id="filter0_d_12_70" x="-11.2815" y="-4331.22" width="4083.9" height="8884.17" filterUnits="userSpaceOnUse" color-interpolation-filters="sRGB">
<feFlood flood-opacity="0" result="BackgroundImageFix"/>
<feColorMatrix in="SourceAlpha" type="matrix" values="0 0 0 0 0 0 0 0 0 0 0 0 0 0 0 0 0 0 127 0" result="hardAlpha"/>
<feOffset dy="11.2815"/>
<feGaussianBlur stdDeviation="5.64074"/>
<feComposite in2="hardAlpha" operator="out"/>
<feColorMatrix type="matrix" values="0 0 0 0 0 0 0 0 0 0 0 0 0 0 0 0 0 0 0.25 0"/>
<feBlend mode="normal" in2="BackgroundImageFix" result="effect1_dropShadow_12_70"/>
<feBlend mode="normal" in="SourceGraphic" in2="effect1_dropShadow_12_70" result="shape"/>
</filter>
<linearGradient id="paint0_linear_12_70" x1="2030.67" y1="-4331.22" x2="2030.67" y2="4530.39" gradientUnits="userSpaceOnUse">
<stop stop-color="#01234A"/>
</linearGradient>
</defs>
</svg>
