<svg width="4062" height="1690" viewBox="0 0 4062 1690" fill="none" xmlns="http://www.w3.org/2000/svg">
<g filter="url(#filter0_d_12_70)">
<rect y="-2642.22" width="4061.34" height="8861.61" fill="url(#paint0_linear_12_70)"/>
</g>
<rect x="662.787" y="-1796.11" width="50.7667" height="5832.53" rx="25.3833" fill="#11B10E"/>
<path d="M723.425 -1147.42H2989.59C3057.28 -1147.42 3191.25 -1143.19 3191.25 -945.768C3191.25 -748.342 3191.25 -240.205 3191.25 -10.8146C3198.77 56.8744 3168.97 192.252 2989.59 192.252C2810.22 192.252 1763.2 192.252 1262.12 192.252C1188.79 192.252 1044.95 219.046 1044.95 416.472C1044.95 613.898 1044.95 1341.08 1044.95 1680C1044.95 1757.56 1064.69 1888.71 1262.12 1888.71C1459.54 1888.71 2496.03 1888.71 2989.59 1888.71C3064.33 1888.71 3191.25 1896.04 3191.25 2105.87C3191.25 2315.71 3191.25 2861.73 3191.25 3108.52C3191.25 3188.9 3168.97 3327.1 2989.59 3332.74C2810.22 3338.38 1763.2 3335.09 1262.12 3332.74C1189.73 3332.27 1262.12 3332.74 980.079 3332.74C793.935 3332.74 961.747 3332.74 713.554 3332.74" stroke="#37D1E4" stroke-width="5.64074" stroke-dasharray="28.2 28.2"/>
<defs>
<filter id="filter0_d_12_70" x="-11.2815" y="-2642.22" width="4083.9" height="8884.17" filterUnits="userSpaceOnUse" color-interpolation-filters="sRGB">
<feFlood flood-opacity="0" result="BackgroundImageFix"/>
<feColorMatrix in="SourceAlpha" type="matrix" values="0 0 0 0 0 0 0 0 0 0 0 0 0 0 0 0 0 0 127 0" result="hardAlpha"/>
<feOffset dy="11.2815"/>
<feGaussianBlur stdDeviation="5.64074"/>
<feComposite in2="hardAlpha" operator="out"/>
<feColorMatrix type="matrix" values="0 0 0 0 0 0 0 0 0 0 0 0 0 0 0 0 0 0 0.25 0"/>
<feBlend mode="normal" in2="BackgroundImageFix" result="effect1_dropShadow_12_70"/>
<feBlend mode="normal" in="SourceGraphic" in2="effect1_dropShadow_12_70" result="shape"/>
</filter>
<linearGradient id="paint0_linear_12_70" x1="2030.67" y1="-2642.22" x2="2030.67" y2="6219.39" gradientUnits="userSpaceOnUse">
<stop stop-color="#01234A"/>
</linearGradient>
</defs>
</svg>
