<svg width="4062" height="1747" viewBox="0 0 4062 1747" fill="none" xmlns="http://www.w3.org/2000/svg">
<g filter="url(#filter0_d_12_70)">
<rect y="-896.221" width="4061.34" height="8861.61" fill="url(#paint0_linear_12_70)"/>
</g>
<rect x="3390.09" y="-50.1094" width="50.7667" height="2727.3" rx="25.3833" transform="rotate(90 3390.09 -50.1094)" fill="#11B10E"/>
<rect x="3390.09" y="-50.1094" width="50.7667" height="2727.3" rx="25.3833" transform="rotate(90 3390.09 -50.1094)" fill="#11B10E"/>
<rect x="3390.09" y="-50.1094" width="50.7667" height="2727.3" rx="25.3833" transform="rotate(90 3390.09 -50.1094)" fill="#11B10E"/>
<rect x="3339.32" y="-535.213" width="50.7667" height="535.871" rx="25.3833" fill="#11B10E"/>
<rect x="662.787" y="-50.1094" width="50.7667" height="5832.53" rx="25.3833" fill="#11B10E"/>
<path d="M723.425 598.576H2989.59C3057.28 598.576 3191.25 602.806 3191.25 800.232C3191.25 997.658 3191.25 1505.8 3191.25 1735.19C3198.77 1802.87 3168.97 1938.25 2989.59 1938.25C2810.22 1938.25 1763.2 1938.25 1262.12 1938.25C1188.79 1938.25 1044.95 1965.05 1044.95 2162.47C1044.95 2359.9 1044.95 3087.08 1044.95 3426C1044.95 3503.56 1064.69 3634.71 1262.12 3634.71C1459.54 3634.71 2496.03 3634.71 2989.59 3634.71C3064.33 3634.71 3191.25 3642.04 3191.25 3851.87C3191.25 4061.71 3191.25 4607.73 3191.25 4854.52C3191.25 4934.9 3168.97 5073.1 2989.59 5078.74C2810.22 5084.38 1763.2 5081.09 1262.12 5078.74C1189.73 5078.27 1262.12 5078.74 980.079 5078.74C793.935 5078.74 961.747 5078.74 713.554 5078.74" stroke="#37D1E4" stroke-width="5.64074" stroke-dasharray="28.2 28.2"/>
<defs>
<filter id="filter0_d_12_70" x="-11.2815" y="-896.221" width="4083.9" height="8884.17" filterUnits="userSpaceOnUse" color-interpolation-filters="sRGB">
<feFlood flood-opacity="0" result="BackgroundImageFix"/>
<feColorMatrix in="SourceAlpha" type="matrix" values="0 0 0 0 0 0 0 0 0 0 0 0 0 0 0 0 0 0 127 0" result="hardAlpha"/>
<feOffset dy="11.2815"/>
<feGaussianBlur stdDeviation="5.64074"/>
<feComposite in2="hardAlpha" operator="out"/>
<feColorMatrix type="matrix" values="0 0 0 0 0 0 0 0 0 0 0 0 0 0 0 0 0 0 0.25 0"/>
<feBlend mode="normal" in2="BackgroundImageFix" result="effect1_dropShadow_12_70"/>
<feBlend mode="normal" in="SourceGraphic" in2="effect1_dropShadow_12_70" result="shape"/>
</filter>
<linearGradient id="paint0_linear_12_70" x1="2030.67" y1="-896.221" x2="2030.67" y2="7965.39" gradientUnits="userSpaceOnUse">
<stop stop-color="#01234A"/>
</linearGradient>
</defs>
</svg>
