<svg width="4062" height="410" viewBox="0 0 4062 410" fill="none" xmlns="http://www.w3.org/2000/svg">
<g filter="url(#filter0_d_12_70)">
<rect y="-5758.22" width="4061.34" height="8861.61" fill="url(#paint0_linear_12_70)"/>
</g>
<rect x="662.787" y="-4912.11" width="50.7667" height="5832.53" rx="25.3833" fill="#11B10E"/>
<path d="M723.425 -4263.42H2989.59C3057.28 -4263.42 3191.25 -4259.19 3191.25 -4061.77C3191.25 -3864.34 3191.25 -3356.2 3191.25 -3126.81C3198.77 -3059.13 3168.97 -2923.75 2989.59 -2923.75C2810.22 -2923.75 1763.2 -2923.75 1262.12 -2923.75C1188.79 -2923.75 1044.95 -2896.95 1044.95 -2699.53C1044.95 -2502.1 1044.95 -1774.92 1044.95 -1436C1044.95 -1358.44 1064.69 -1227.29 1262.12 -1227.29C1459.54 -1227.29 2496.03 -1227.29 2989.59 -1227.29C3064.33 -1227.29 3191.25 -1219.96 3191.25 -1010.13C3191.25 -800.29 3191.25 -254.266 3191.25 -7.48353C3191.25 72.8971 3168.97 211.095 2989.59 216.736C2810.22 222.377 1763.2 219.086 1262.12 216.736C1189.73 216.266 1262.12 216.736 980.079 216.736C793.935 216.736 961.747 216.736 713.554 216.736" stroke="#37D1E4" stroke-width="5.64074" stroke-dasharray="28.2 28.2"/>
<defs>
<filter id="filter0_d_12_70" x="-11.2815" y="-5758.22" width="4083.9" height="8884.17" filterUnits="userSpaceOnUse" color-interpolation-filters="sRGB">
<feFlood flood-opacity="0" result="BackgroundImageFix"/>
<feColorMatrix in="SourceAlpha" type="matrix" values="0 0 0 0 0 0 0 0 0 0 0 0 0 0 0 0 0 0 127 0" result="hardAlpha"/>
<feOffset dy="11.2815"/>
<feGaussianBlur stdDeviation="5.64074"/>
<feComposite in2="hardAlpha" operator="out"/>
<feColorMatrix type="matrix" values="0 0 0 0 0 0 0 0 0 0 0 0 0 0 0 0 0 0 0.25 0"/>
<feBlend mode="normal" in2="BackgroundImageFix" result="effect1_dropShadow_12_70"/>
<feBlend mode="normal" in="SourceGraphic" in2="effect1_dropShadow_12_70" result="shape"/>
</filter>
<linearGradient id="paint0_linear_12_70" x1="2030.67" y1="-5758.22" x2="2030.67" y2="3103.39" gradientUnits="userSpaceOnUse">
<stop stop-color="#01234A"/>
</linearGradient>
</defs>
</svg>
